<?xml version="1.0" encoding="UTF-8" standalone="no"?>
<!DOCTYPE svg PUBLIC "-//W3C//DTD SVG 1.1//EN"
 "http://www.w3.org/Graphics/SVG/1.1/DTD/svg11.dtd">
<!-- Generated by graphviz version 2.38.0 (20140413.2041)
 -->
<!-- Title: g Pages: 1 -->
<svg width="233pt" height="142pt"
 viewBox="0.00 0.00 233.42 142.00" xmlns="http://www.w3.org/2000/svg" xmlns:xlink="http://www.w3.org/1999/xlink">
<g id="graph0" class="graph" transform="scale(1 1) rotate(0) translate(4 138)">
<title>g</title>
<polygon fill="white" stroke="none" points="-4,4 -4,-138 229.42,-138 229.42,4 -4,4"/>
<!-- N2 -->
<g id="node1" class="node"><title>N2</title>
<path fill="#ffffff" stroke="#2e3436" stroke-width="1.5" d="M12,-93.5C12,-93.5 76.1953,-93.5 76.1953,-93.5 82.1953,-93.5 88.1953,-99.5 88.1953,-105.5 88.1953,-105.5 88.1953,-121.5 88.1953,-121.5 88.1953,-127.5 82.1953,-133.5 76.1953,-133.5 76.1953,-133.5 12,-133.5 12,-133.5 6,-133.5 0,-127.5 0,-121.5 0,-121.5 0,-105.5 0,-105.5 0,-99.5 6,-93.5 12,-93.5"/>
<text text-anchor="middle" x="44.0977" y="-123.1" font-family="sans-serif" font-size="8.00" fill="#1c2021">Person</text>
<polyline fill="none" stroke="#2e3436" stroke-width="1.5" points="0,-117.5 88.1953,-117.5 "/>
<text text-anchor="start" x="8" y="-107.1" font-family="sans-serif" font-size="8.00" fill="#1c2021">name = &#39;Tom Hanks&#39;</text>
<text text-anchor="start" x="8" y="-99.1" font-family="sans-serif" font-size="8.00" fill="#1c2021">born = 1956</text>
</g>
<!-- N3 -->
<g id="node2" class="node"><title>N3</title>
<path fill="#ffffff" stroke="#2e3436" stroke-width="1.5" d="M74.1152,-0.5C74.1152,-0.5 140.08,-0.5 140.08,-0.5 146.08,-0.5 152.08,-6.5 152.08,-12.5 152.08,-12.5 152.08,-28.5 152.08,-28.5 152.08,-34.5 146.08,-40.5 140.08,-40.5 140.08,-40.5 74.1152,-40.5 74.1152,-40.5 68.1152,-40.5 62.1152,-34.5 62.1152,-28.5 62.1152,-28.5 62.1152,-12.5 62.1152,-12.5 62.1152,-6.5 68.1152,-0.5 74.1152,-0.5"/>
<text text-anchor="middle" x="107.098" y="-30.1" font-family="sans-serif" font-size="8.00" fill="#1c2021">Movie</text>
<polyline fill="none" stroke="#2e3436" stroke-width="1.5" points="62.1152,-24.5 152.08,-24.5 "/>
<text text-anchor="start" x="70.1152" y="-14.1" font-family="sans-serif" font-size="8.00" fill="#1c2021">title = &#39;Forrest Gump&#39;</text>
<text text-anchor="start" x="70.1152" y="-6.1" font-family="sans-serif" font-size="8.00" fill="#1c2021">released = 1994</text>
</g>
<!-- N2&#45;&gt;N3 -->
<g id="edge1" class="edge"><title>N2&#45;&gt;N3</title>
<path fill="none" stroke="#2e3436" stroke-width="2" d="M54.3897,-93.468C60.2736,-83.0353 68.0157,-70.0216 75.8047,-59 78.6308,-55.0009 81.7743,-50.8978 84.9482,-46.9411"/>
<polygon fill="#2e3436" stroke="#2e3436" stroke-width="2" points="89.9196,-40.8798 87.7729,-48.8192 87.928,-44.0964 85.5499,-46.9959 85.1633,-46.6788 84.7767,-46.3618 87.1548,-43.4622 82.5537,-44.5385 89.9196,-40.8798 89.9196,-40.8798"/>
<text text-anchor="middle" x="105.744" y="-68.6" font-family="sans-serif" font-size="8.00" fill="#2e3436">ACTED_IN</text>
<text text-anchor="start" x="76.0977" y="-60.6" font-family="sans-serif" font-size="8.00" fill="#2e3436">roles = [&#39;Forrest&#39;]</text>
</g>
<!-- N4 -->
<g id="node3" class="node"><title>N4</title>
<path fill="#ffffff" stroke="#2e3436" stroke-width="1.5" d="M128.775,-93.5C128.775,-93.5 213.42,-93.5 213.42,-93.5 219.42,-93.5 225.42,-99.5 225.42,-105.5 225.42,-105.5 225.42,-121.5 225.42,-121.5 225.42,-127.5 219.42,-133.5 213.42,-133.5 213.42,-133.5 128.775,-133.5 128.775,-133.5 122.775,-133.5 116.775,-127.5 116.775,-121.5 116.775,-121.5 116.775,-105.5 116.775,-105.5 116.775,-99.5 122.775,-93.5 128.775,-93.5"/>
<text text-anchor="middle" x="171.098" y="-123.1" font-family="sans-serif" font-size="8.00" fill="#1c2021">Person</text>
<polyline fill="none" stroke="#2e3436" stroke-width="1.5" points="116.775,-117.5 225.42,-117.5 "/>
<text text-anchor="start" x="124.775" y="-107.1" font-family="sans-serif" font-size="8.00" fill="#1c2021">name = &#39;Robert Zemeckis&#39;</text>
<text text-anchor="start" x="124.775" y="-99.1" font-family="sans-serif" font-size="8.00" fill="#1c2021">born = 1951</text>
</g>
<!-- N4&#45;&gt;N3 -->
<g id="edge2" class="edge"><title>N4&#45;&gt;N3</title>
<path fill="none" stroke="#4e9a06" stroke-width="2" d="M160.111,-93.27C153.968,-82.8957 145.98,-69.9998 138.098,-59 135.123,-54.8481 131.823,-50.5653 128.519,-46.4452"/>
<polygon fill="#4e9a06" stroke="#4e9a06" stroke-width="2" points="123.712,-40.5593 131.07,-44.233 126.471,-43.1473 128.843,-46.0517 128.456,-46.368 128.069,-46.6843 125.697,-43.7799 125.842,-48.503 123.712,-40.5593 123.712,-40.5593"/>
<text text-anchor="middle" x="168.543" y="-64.6" font-family="sans-serif" font-size="8.00" fill="#4e9a06">DIRECTED</text>
</g>
</g>
</svg>
