<?xml version="1.0" encoding="UTF-8" standalone="no"?>
<!DOCTYPE svg PUBLIC "-//W3C//DTD SVG 1.1//EN"
 "http://www.w3.org/Graphics/SVG/1.1/DTD/svg11.dtd">
<!-- Generated by graphviz version 2.38.0 (20140413.2041)
 -->
<!-- Title: g Pages: 1 -->
<svg width="149pt" height="126pt"
 viewBox="0.00 0.00 148.96 126.00" xmlns="http://www.w3.org/2000/svg" xmlns:xlink="http://www.w3.org/1999/xlink">
<g id="graph0" class="graph" transform="scale(1 1) rotate(0) translate(4 122)">
<title>g</title>
<polygon fill="white" stroke="none" points="-4,4 -4,-122 144.955,-122 144.955,4 -4,4"/>
<!-- N6 -->
<g id="node1" class="node"><title>N6</title>
<path fill="#ffffff" stroke="#2e3436" stroke-width="1.5" d="M52.5918,-0.5C52.5918,-0.5 87.0684,-0.5 87.0684,-0.5 93.0684,-0.5 99.0684,-6.5 99.0684,-12.5 99.0684,-12.5 99.0684,-24.5 99.0684,-24.5 99.0684,-30.5 93.0684,-36.5 87.0684,-36.5 87.0684,-36.5 52.5918,-36.5 52.5918,-36.5 46.5918,-36.5 40.5918,-30.5 40.5918,-24.5 40.5918,-24.5 40.5918,-12.5 40.5918,-12.5 40.5918,-6.5 46.5918,-0.5 52.5918,-0.5"/>
<text text-anchor="middle" x="69.8301" y="-25.1" font-family="sans-serif" font-size="8.00" fill="#1c2021">Year</text>
<polyline fill="none" stroke="#2e3436" stroke-width="1.5" points="40.5918,-18.5 99.0684,-18.5 "/>
<text text-anchor="start" x="48.5918" y="-7.1" font-family="sans-serif" font-size="8.00" fill="#1c2021">year = 2014</text>
</g>
<!-- N8 -->
<g id="node2" class="node"><title>N8</title>
<path fill="#ffffff" stroke="#2e3436" stroke-width="1.5" d="M12,-81.5C12,-81.5 43.6602,-81.5 43.6602,-81.5 49.6602,-81.5 55.6602,-87.5 55.6602,-93.5 55.6602,-93.5 55.6602,-105.5 55.6602,-105.5 55.6602,-111.5 49.6602,-117.5 43.6602,-117.5 43.6602,-117.5 12,-117.5 12,-117.5 6,-117.5 0,-111.5 0,-105.5 0,-105.5 0,-93.5 0,-93.5 0,-87.5 6,-81.5 12,-81.5"/>
<text text-anchor="middle" x="27.8301" y="-106.1" font-family="sans-serif" font-size="8.00" fill="#1c2021">Month</text>
<polyline fill="none" stroke="#2e3436" stroke-width="1.5" points="0,-99.5 55.6602,-99.5 "/>
<text text-anchor="start" x="8" y="-88.1" font-family="sans-serif" font-size="8.00" fill="#1c2021">month = 11</text>
</g>
<!-- N8&#45;&gt;N6 -->
<g id="edge1" class="edge"><title>N8&#45;&gt;N6</title>
<path fill="none" stroke="#2e3436" stroke-width="2" d="M32.2094,-81.4419C34.6762,-73.1905 38.1599,-63.2999 42.5957,-55 44.7536,-50.9622 47.3615,-46.902 50.0976,-43.0438"/>
<polygon fill="#2e3436" stroke="#2e3436" stroke-width="2" points="54.7669,-36.7808 52.9899,-44.8109 52.9263,-40.0861 50.6849,-43.0925 50.2841,-42.7937 49.8832,-42.4948 52.1246,-39.4884 47.5783,-40.7764 54.7669,-36.7808 54.7669,-36.7808"/>
<text text-anchor="middle" x="59.9473" y="-56.6" font-family="sans-serif" font-size="8.00" fill="#2e3436">IN_YEAR</text>
</g>
<!-- N7 -->
<g id="node3" class="node"><title>N7</title>
<path fill="#ffffff" stroke="#2e3436" stroke-width="1.5" d="M96.7051,-81.5C96.7051,-81.5 128.955,-81.5 128.955,-81.5 134.955,-81.5 140.955,-87.5 140.955,-93.5 140.955,-93.5 140.955,-105.5 140.955,-105.5 140.955,-111.5 134.955,-117.5 128.955,-117.5 128.955,-117.5 96.7051,-117.5 96.7051,-117.5 90.7051,-117.5 84.7051,-111.5 84.7051,-105.5 84.7051,-105.5 84.7051,-93.5 84.7051,-93.5 84.7051,-87.5 90.7051,-81.5 96.7051,-81.5"/>
<text text-anchor="middle" x="112.83" y="-106.1" font-family="sans-serif" font-size="8.00" fill="#1c2021">Month</text>
<polyline fill="none" stroke="#2e3436" stroke-width="1.5" points="84.7051,-99.5 140.955,-99.5 "/>
<text text-anchor="start" x="92.7051" y="-88.1" font-family="sans-serif" font-size="8.00" fill="#1c2021">month = 10</text>
</g>
<!-- N7&#45;&gt;N6 -->
<g id="edge2" class="edge"><title>N7&#45;&gt;N6</title>
<path fill="none" stroke="#2e3436" stroke-width="2" d="M103.5,-81.3582C97.4705,-70.2812 89.5374,-55.7065 82.8862,-43.4868"/>
<polygon fill="#2e3436" stroke="#2e3436" stroke-width="2" points="79.1422,-36.6084 85.6922,-41.5823 81.3742,-39.663 83.167,-42.9567 82.7278,-43.1958 82.2887,-43.4348 80.4959,-40.1411 79.7635,-44.8093 79.1422,-36.6084 79.1422,-36.6084"/>
<text text-anchor="middle" x="109.947" y="-56.6" font-family="sans-serif" font-size="8.00" fill="#2e3436">IN_YEAR</text>
</g>
</g>
</svg>
