<?xml version="1.0" encoding="UTF-8" standalone="no"?>
<!DOCTYPE svg PUBLIC "-//W3C//DTD SVG 1.1//EN"
 "http://www.w3.org/Graphics/SVG/1.1/DTD/svg11.dtd">
<!-- Generated by graphviz version 2.38.0 (20140413.2041)
 -->
<!-- Title: g Pages: 1 -->
<svg width="111pt" height="142pt"
 viewBox="0.00 0.00 110.50 142.00" xmlns="http://www.w3.org/2000/svg" xmlns:xlink="http://www.w3.org/1999/xlink">
<g id="graph0" class="graph" transform="scale(1 1) rotate(0) translate(4 138)">
<title>g</title>
<polygon fill="white" stroke="none" points="-4,4 -4,-138 106.504,-138 106.504,4 -4,4"/>
<!-- N2 -->
<g id="node1" class="node"><title>N2</title>
<path fill="#ffffff" stroke="#2e3436" stroke-width="1.5" d="M12,-93.5C12,-93.5 76.1953,-93.5 76.1953,-93.5 82.1953,-93.5 88.1953,-99.5 88.1953,-105.5 88.1953,-105.5 88.1953,-121.5 88.1953,-121.5 88.1953,-127.5 82.1953,-133.5 76.1953,-133.5 76.1953,-133.5 12,-133.5 12,-133.5 6,-133.5 0,-127.5 0,-121.5 0,-121.5 0,-105.5 0,-105.5 0,-99.5 6,-93.5 12,-93.5"/>
<text text-anchor="middle" x="44.0977" y="-123.1" font-family="sans-serif" font-size="8.00" fill="#1c2021">Person</text>
<polyline fill="none" stroke="#2e3436" stroke-width="1.5" points="0,-117.5 88.1953,-117.5 "/>
<text text-anchor="start" x="8" y="-107.1" font-family="sans-serif" font-size="8.00" fill="#1c2021">name = &#39;Tom Hanks&#39;</text>
<text text-anchor="start" x="8" y="-99.1" font-family="sans-serif" font-size="8.00" fill="#1c2021">born = 1956</text>
</g>
<!-- N5 -->
<g id="node2" class="node"><title>N5</title>
<path fill="#ffffff" stroke="#2e3436" stroke-width="1.5" d="M15.5508,-0.5C15.5508,-0.5 72.6445,-0.5 72.6445,-0.5 78.6445,-0.5 84.6445,-6.5 84.6445,-12.5 84.6445,-12.5 84.6445,-28.5 84.6445,-28.5 84.6445,-34.5 78.6445,-40.5 72.6445,-40.5 72.6445,-40.5 15.5508,-40.5 15.5508,-40.5 9.55078,-40.5 3.55078,-34.5 3.55078,-28.5 3.55078,-28.5 3.55078,-12.5 3.55078,-12.5 3.55078,-6.5 9.55078,-0.5 15.5508,-0.5"/>
<text text-anchor="middle" x="44.0977" y="-30.1" font-family="sans-serif" font-size="8.00" fill="#1c2021">Movie</text>
<polyline fill="none" stroke="#2e3436" stroke-width="1.5" points="3.55078,-24.5 84.6445,-24.5 "/>
<text text-anchor="start" x="11.5508" y="-14.1" font-family="sans-serif" font-size="8.00" fill="#1c2021">title = &#39;Cloud Atlas&#39;</text>
<text text-anchor="start" x="11.5508" y="-6.1" font-family="sans-serif" font-size="8.00" fill="#1c2021">released = 2012</text>
</g>
<!-- N2&#45;&gt;N5 -->
<g id="edge1" class="edge"><title>N2&#45;&gt;N5</title>
<path fill="none" stroke="#2e3436" stroke-width="2" d="M44.0977,-93.2012C44.0977,-80.1712 44.0977,-62.7924 44.0977,-48.4077"/>
<polygon fill="#2e3436" stroke="#2e3436" stroke-width="2" points="44.0977,-40.7709 47.4728,-48.2709 44.5977,-44.5209 44.5978,-48.2709 44.0978,-48.2709 43.5978,-48.2709 43.5977,-44.5209 40.7228,-48.271 44.0977,-40.7709 44.0977,-40.7709"/>
<text text-anchor="middle" x="73.3008" y="-68.6" font-family="sans-serif" font-size="8.00" fill="#2e3436">ACTED_IN</text>
<text text-anchor="start" x="44.0977" y="-60.6" font-family="sans-serif" font-size="8.00" fill="#2e3436">roles = [&#39;Zachry&#39;]</text>
</g>
</g>
</svg>
