<?xml version="1.0" encoding="UTF-8" standalone="no"?>
<!DOCTYPE svg PUBLIC "-//W3C//DTD SVG 1.1//EN"
 "http://www.w3.org/Graphics/SVG/1.1/DTD/svg11.dtd">
<!-- Generated by graphviz version 2.38.0 (20140413.2041)
 -->
<!-- Title: g Pages: 1 -->
<svg width="205pt" height="49pt"
 viewBox="0.00 0.00 205.19 49.00" xmlns="http://www.w3.org/2000/svg" xmlns:xlink="http://www.w3.org/1999/xlink">
<g id="graph0" class="graph" transform="scale(1 1) rotate(0) translate(4 45)">
<title>g</title>
<polygon fill="white" stroke="none" points="-4,4 -4,-45 201.186,-45 201.186,4 -4,4"/>
<!-- N0 -->
<g id="node1" class="node"><title>N0</title>
<path fill="#ffffff" stroke="#2e3436" stroke-width="1.5" d="M12,-0.5C12,-0.5 66.4062,-0.5 66.4062,-0.5 72.4062,-0.5 78.4062,-6.5 78.4062,-12.5 78.4062,-12.5 78.4062,-28.5 78.4062,-28.5 78.4062,-34.5 72.4062,-40.5 66.4062,-40.5 66.4062,-40.5 12,-40.5 12,-40.5 6,-40.5 0,-34.5 0,-28.5 0,-28.5 0,-12.5 0,-12.5 0,-6.5 6,-0.5 12,-0.5"/>
<text text-anchor="middle" x="39.2031" y="-30.1" font-family="sans-serif" font-size="8.00" fill="#1c2021">Movie</text>
<polyline fill="none" stroke="#2e3436" stroke-width="1.5" points="0,-24.5 78.4062,-24.5 "/>
<text text-anchor="start" x="8" y="-14.1" font-family="sans-serif" font-size="8.00" fill="#1c2021">title = &#39;The Matrix&#39;</text>
<text text-anchor="start" x="8" y="-6.1" font-family="sans-serif" font-size="8.00" fill="#1c2021">released = 1997</text>
</g>
<!-- N1 -->
<g id="node2" class="node"><title>N1</title>
<path fill="#ffffff" stroke="#2e3436" stroke-width="1.5" d="M119.221,-0.5C119.221,-0.5 185.186,-0.5 185.186,-0.5 191.186,-0.5 197.186,-6.5 197.186,-12.5 197.186,-12.5 197.186,-28.5 197.186,-28.5 197.186,-34.5 191.186,-40.5 185.186,-40.5 185.186,-40.5 119.221,-40.5 119.221,-40.5 113.221,-40.5 107.221,-34.5 107.221,-28.5 107.221,-28.5 107.221,-12.5 107.221,-12.5 107.221,-6.5 113.221,-0.5 119.221,-0.5"/>
<text text-anchor="middle" x="152.203" y="-30.1" font-family="sans-serif" font-size="8.00" fill="#1c2021">Movie</text>
<polyline fill="none" stroke="#2e3436" stroke-width="1.5" points="107.221,-24.5 197.186,-24.5 "/>
<text text-anchor="start" x="115.221" y="-14.1" font-family="sans-serif" font-size="8.00" fill="#1c2021">title = &#39;Forrest Gump&#39;</text>
<text text-anchor="start" x="115.221" y="-6.1" font-family="sans-serif" font-size="8.00" fill="#1c2021">released = 1994</text>
</g>
</g>
</svg>
