<?xml version="1.0" encoding="UTF-8" standalone="no"?>
<!DOCTYPE svg PUBLIC "-//W3C//DTD SVG 1.1//EN"
 "http://www.w3.org/Graphics/SVG/1.1/DTD/svg11.dtd">
<!-- Generated by graphviz version 2.38.0 (20140413.2041)
 -->
<!-- Title: g Pages: 1 -->
<svg width="500pt" height="142pt"
 viewBox="0.00 0.00 499.54 142.00" xmlns="http://www.w3.org/2000/svg" xmlns:xlink="http://www.w3.org/1999/xlink">
<g id="graph0" class="graph" transform="scale(1 1) rotate(0) translate(4 138)">
<title>g</title>
<polygon fill="white" stroke="none" points="-4,4 -4,-138 495.535,-138 495.535,4 -4,4"/>
<!-- N0 -->
<g id="node1" class="node"><title>N0</title>
<path fill="#ffffff" stroke="#2e3436" stroke-width="1.5" d="M12,-93.5C12,-93.5 66.4062,-93.5 66.4062,-93.5 72.4062,-93.5 78.4062,-99.5 78.4062,-105.5 78.4062,-105.5 78.4062,-121.5 78.4062,-121.5 78.4062,-127.5 72.4062,-133.5 66.4062,-133.5 66.4062,-133.5 12,-133.5 12,-133.5 6,-133.5 0,-127.5 0,-121.5 0,-121.5 0,-105.5 0,-105.5 0,-99.5 6,-93.5 12,-93.5"/>
<text text-anchor="middle" x="39.2031" y="-123.1" font-family="sans-serif" font-size="8.00" fill="#1c2021">Movie</text>
<polyline fill="none" stroke="#2e3436" stroke-width="1.5" points="0,-117.5 78.4062,-117.5 "/>
<text text-anchor="start" x="8" y="-107.1" font-family="sans-serif" font-size="8.00" fill="#1c2021">title = &#39;The Matrix&#39;</text>
<text text-anchor="start" x="8" y="-99.1" font-family="sans-serif" font-size="8.00" fill="#1c2021">released = 1997</text>
</g>
<!-- N1 -->
<g id="node2" class="node"><title>N1</title>
<path fill="#ffffff" stroke="#2e3436" stroke-width="1.5" d="M93.6562,-0.5C93.6562,-0.5 150.75,-0.5 150.75,-0.5 156.75,-0.5 162.75,-6.5 162.75,-12.5 162.75,-12.5 162.75,-28.5 162.75,-28.5 162.75,-34.5 156.75,-40.5 150.75,-40.5 150.75,-40.5 93.6562,-40.5 93.6562,-40.5 87.6562,-40.5 81.6562,-34.5 81.6562,-28.5 81.6562,-28.5 81.6562,-12.5 81.6562,-12.5 81.6562,-6.5 87.6562,-0.5 93.6562,-0.5"/>
<text text-anchor="middle" x="122.203" y="-30.1" font-family="sans-serif" font-size="8.00" fill="#1c2021">Movie</text>
<polyline fill="none" stroke="#2e3436" stroke-width="1.5" points="81.6562,-24.5 162.75,-24.5 "/>
<text text-anchor="start" x="89.6562" y="-14.1" font-family="sans-serif" font-size="8.00" fill="#1c2021">title = &#39;Cloud Atlas&#39;</text>
<text text-anchor="start" x="89.6562" y="-6.1" font-family="sans-serif" font-size="8.00" fill="#1c2021">released = 2012</text>
</g>
<!-- N2 -->
<g id="node3" class="node"><title>N2</title>
<path fill="#ffffff" stroke="#2e3436" stroke-width="1.5" d="M239.221,-0.5C239.221,-0.5 305.186,-0.5 305.186,-0.5 311.186,-0.5 317.186,-6.5 317.186,-12.5 317.186,-12.5 317.186,-28.5 317.186,-28.5 317.186,-34.5 311.186,-40.5 305.186,-40.5 305.186,-40.5 239.221,-40.5 239.221,-40.5 233.221,-40.5 227.221,-34.5 227.221,-28.5 227.221,-28.5 227.221,-12.5 227.221,-12.5 227.221,-6.5 233.221,-0.5 239.221,-0.5"/>
<text text-anchor="middle" x="272.203" y="-30.1" font-family="sans-serif" font-size="8.00" fill="#1c2021">Movie</text>
<polyline fill="none" stroke="#2e3436" stroke-width="1.5" points="227.221,-24.5 317.186,-24.5 "/>
<text text-anchor="start" x="235.221" y="-14.1" font-family="sans-serif" font-size="8.00" fill="#1c2021">title = &#39;Forrest Gump&#39;</text>
<text text-anchor="start" x="235.221" y="-6.1" font-family="sans-serif" font-size="8.00" fill="#1c2021">released = 1994</text>
</g>
<!-- N3 -->
<g id="node4" class="node"><title>N3</title>
<path fill="#ffffff" stroke="#2e3436" stroke-width="1.5" d="M402.871,-93.5C402.871,-93.5 479.535,-93.5 479.535,-93.5 485.535,-93.5 491.535,-99.5 491.535,-105.5 491.535,-105.5 491.535,-121.5 491.535,-121.5 491.535,-127.5 485.535,-133.5 479.535,-133.5 479.535,-133.5 402.871,-133.5 402.871,-133.5 396.871,-133.5 390.871,-127.5 390.871,-121.5 390.871,-121.5 390.871,-105.5 390.871,-105.5 390.871,-99.5 396.871,-93.5 402.871,-93.5"/>
<text text-anchor="middle" x="441.203" y="-123.1" font-family="sans-serif" font-size="8.00" fill="#1c2021">Person</text>
<polyline fill="none" stroke="#2e3436" stroke-width="1.5" points="390.871,-117.5 491.535,-117.5 "/>
<text text-anchor="start" x="398.871" y="-107.1" font-family="sans-serif" font-size="8.00" fill="#1c2021">name = &#39;Keanu Reeves&#39;</text>
<text text-anchor="start" x="398.871" y="-99.1" font-family="sans-serif" font-size="8.00" fill="#1c2021">born = 1964</text>
</g>
<!-- N4 -->
<g id="node5" class="node"><title>N4</title>
<path fill="#ffffff" stroke="#2e3436" stroke-width="1.5" d="M264.881,-93.5C264.881,-93.5 349.525,-93.5 349.525,-93.5 355.525,-93.5 361.525,-99.5 361.525,-105.5 361.525,-105.5 361.525,-121.5 361.525,-121.5 361.525,-127.5 355.525,-133.5 349.525,-133.5 349.525,-133.5 264.881,-133.5 264.881,-133.5 258.881,-133.5 252.881,-127.5 252.881,-121.5 252.881,-121.5 252.881,-105.5 252.881,-105.5 252.881,-99.5 258.881,-93.5 264.881,-93.5"/>
<text text-anchor="middle" x="307.203" y="-123.1" font-family="sans-serif" font-size="8.00" fill="#1c2021">Person</text>
<polyline fill="none" stroke="#2e3436" stroke-width="1.5" points="252.881,-117.5 361.525,-117.5 "/>
<text text-anchor="start" x="260.881" y="-107.1" font-family="sans-serif" font-size="8.00" fill="#1c2021">name = &#39;Robert Zemeckis&#39;</text>
<text text-anchor="start" x="260.881" y="-99.1" font-family="sans-serif" font-size="8.00" fill="#1c2021">born = 1951</text>
</g>
<!-- N4&#45;&gt;N2 -->
<g id="edge1" class="edge"><title>N4&#45;&gt;N2</title>
<path fill="none" stroke="#2e3436" stroke-width="2" d="M299.781,-93.2012C294.723,-80.0506 287.961,-62.4701 282.399,-48.0089"/>
<polygon fill="#2e3436" stroke="#2e3436" stroke-width="2" points="279.615,-40.7709 285.457,-46.5595 281.428,-44.0915 282.774,-47.5915 282.307,-47.771 281.841,-47.9505 280.495,-44.4505 279.157,-48.9826 279.615,-40.7709 279.615,-40.7709"/>
<text text-anchor="middle" x="311.648" y="-64.6" font-family="sans-serif" font-size="8.00" fill="#2e3436">DIRECTED</text>
</g>
<!-- N5 -->
<g id="node6" class="node"><title>N5</title>
<path fill="#ffffff" stroke="#2e3436" stroke-width="1.5" d="M119.105,-93.5C119.105,-93.5 183.301,-93.5 183.301,-93.5 189.301,-93.5 195.301,-99.5 195.301,-105.5 195.301,-105.5 195.301,-121.5 195.301,-121.5 195.301,-127.5 189.301,-133.5 183.301,-133.5 183.301,-133.5 119.105,-133.5 119.105,-133.5 113.105,-133.5 107.105,-127.5 107.105,-121.5 107.105,-121.5 107.105,-105.5 107.105,-105.5 107.105,-99.5 113.105,-93.5 119.105,-93.5"/>
<text text-anchor="middle" x="151.203" y="-123.1" font-family="sans-serif" font-size="8.00" fill="#1c2021">Person</text>
<polyline fill="none" stroke="#2e3436" stroke-width="1.5" points="107.105,-117.5 195.301,-117.5 "/>
<text text-anchor="start" x="115.105" y="-107.1" font-family="sans-serif" font-size="8.00" fill="#1c2021">name = &#39;Tom Hanks&#39;</text>
<text text-anchor="start" x="115.105" y="-99.1" font-family="sans-serif" font-size="8.00" fill="#1c2021">born = 1956</text>
</g>
<!-- N5&#45;&gt;N1 -->
<g id="edge2" class="edge"><title>N5&#45;&gt;N1</title>
<path fill="none" stroke="#4e9a06" stroke-width="2" d="M130.696,-93.1481C126.253,-87.7441 122.175,-81.5447 119.797,-75 116.757,-66.6371 116.327,-57.05 116.979,-48.3228"/>
<polygon fill="#4e9a06" stroke="#4e9a06" stroke-width="2" points="117.839,-40.6095 120.362,-48.4373 117.921,-44.3918 117.505,-48.1188 117.008,-48.0634 116.511,-48.008 116.927,-44.281 113.654,-47.6894 117.839,-40.6095 117.839,-40.6095"/>
<text text-anchor="middle" x="148.406" y="-68.6" font-family="sans-serif" font-size="8.00" fill="#4e9a06">ACTED_IN</text>
<text text-anchor="start" x="119.203" y="-60.6" font-family="sans-serif" font-size="8.00" fill="#4e9a06">roles = [&#39;Zachry&#39;]</text>
</g>
<!-- N5&#45;&gt;N2 -->
<g id="edge3" class="edge"><title>N5&#45;&gt;N2</title>
<path fill="none" stroke="#4e9a06" stroke-width="2" d="M175.938,-93.2931C189.214,-83.0401 205.893,-70.2502 220.91,-59 226.936,-54.4861 233.394,-49.7137 239.626,-45.1414"/>
<polygon fill="#4e9a06" stroke="#4e9a06" stroke-width="2" points="245.759,-40.6528 241.7,-47.806 243.028,-43.2711 240.002,-45.486 239.707,-45.0826 239.411,-44.6791 242.437,-42.4642 237.713,-42.3592 245.759,-40.6528 245.759,-40.6528"/>
<text text-anchor="middle" x="249.85" y="-68.6" font-family="sans-serif" font-size="8.00" fill="#4e9a06">ACTED_IN</text>
<text text-anchor="start" x="220.203" y="-60.6" font-family="sans-serif" font-size="8.00" fill="#4e9a06">roles = [&#39;Forrest&#39;]</text>
</g>
</g>
</svg>
