<?xml version="1.0" encoding="UTF-8" standalone="no"?>
<!DOCTYPE svg PUBLIC "-//W3C//DTD SVG 1.1//EN"
 "http://www.w3.org/Graphics/SVG/1.1/DTD/svg11.dtd">
<!-- Generated by graphviz version 2.38.0 (20140413.2041)
 -->
<!-- Title: g Pages: 1 -->
<svg width="143pt" height="219pt"
 viewBox="0.00 0.00 143.20 219.00" xmlns="http://www.w3.org/2000/svg" xmlns:xlink="http://www.w3.org/1999/xlink">
<g id="graph0" class="graph" transform="scale(1 1) rotate(0) translate(4 215)">
<title>g</title>
<polygon fill="white" stroke="none" points="-4,4 -4,-215 139.195,-215 139.195,4 -4,4"/>
<!-- N0 -->
<g id="node1" class="node"><title>N0</title>
<path fill="#ffffff" stroke="#2e3436" stroke-width="1.5" d="M18.6699,-81.5C18.6699,-81.5 86.877,-81.5 86.877,-81.5 92.877,-81.5 98.877,-87.5 98.877,-93.5 98.877,-93.5 98.877,-109.5 98.877,-109.5 98.877,-115.5 92.877,-121.5 86.877,-121.5 86.877,-121.5 18.6699,-121.5 18.6699,-121.5 12.6699,-121.5 6.66992,-115.5 6.66992,-109.5 6.66992,-109.5 6.66992,-93.5 6.66992,-93.5 6.66992,-87.5 12.6699,-81.5 18.6699,-81.5"/>
<text text-anchor="middle" x="52.7734" y="-111.1" font-family="sans-serif" font-size="8.00" fill="#1c2021">Movie</text>
<polyline fill="none" stroke="#2e3436" stroke-width="1.5" points="6.66992,-105.5 98.877,-105.5 "/>
<text text-anchor="start" x="14.6699" y="-95.1" font-family="sans-serif" font-size="8.00" fill="#1c2021">title = &#39;movie title&#39;</text>
<text text-anchor="start" x="14.6699" y="-87.1" font-family="sans-serif" font-size="8.00" fill="#1c2021">year = &#39;year released&#39;</text>
</g>
<!-- N8 -->
<g id="node3" class="node"><title>N8</title>
<path fill="#ffffff" stroke="#2e3436" stroke-width="1.5" d="M12,-0.5C12,-0.5 93.5469,-0.5 93.5469,-0.5 99.5469,-0.5 105.547,-6.5 105.547,-12.5 105.547,-12.5 105.547,-24.5 105.547,-24.5 105.547,-30.5 99.5469,-36.5 93.5469,-36.5 93.5469,-36.5 12,-36.5 12,-36.5 6,-36.5 0,-30.5 0,-24.5 0,-24.5 0,-12.5 0,-12.5 0,-6.5 6,-0.5 12,-0.5"/>
<text text-anchor="middle" x="52.7734" y="-25.1" font-family="sans-serif" font-size="8.00" fill="#1c2021">Country</text>
<polyline fill="none" stroke="#2e3436" stroke-width="1.5" points="0,-18.5 105.547,-18.5 "/>
<text text-anchor="start" x="8" y="-7.1" font-family="sans-serif" font-size="8.00" fill="#1c2021">name = &#39;name of country&#39;</text>
</g>
<!-- N0&#45;&gt;N8 -->
<g id="edge2" class="edge"><title>N0&#45;&gt;N8</title>
<path fill="none" stroke="#2e3436" stroke-width="2" d="M52.7734,-81.3041C52.7734,-70.2809 52.7734,-56.3142 52.7734,-44.4477"/>
<polygon fill="#2e3436" stroke="#2e3436" stroke-width="2" points="52.7734,-36.6301 56.1485,-44.13 53.2735,-40.38 53.2735,-44.13 52.7735,-44.1301 52.2735,-44.1301 52.2735,-40.3801 49.3985,-44.1301 52.7734,-36.6301 52.7734,-36.6301"/>
<text text-anchor="middle" x="70.5547" y="-56.6" font-family="sans-serif" font-size="8.00" fill="#2e3436">MADE_IN</text>
</g>
<!-- N3 -->
<g id="node2" class="node"><title>N3</title>
<path fill="#ffffff" stroke="#2e3436" stroke-width="1.5" d="M12.8867,-174.5C12.8867,-174.5 92.6602,-174.5 92.6602,-174.5 98.6602,-174.5 104.66,-180.5 104.66,-186.5 104.66,-186.5 104.66,-198.5 104.66,-198.5 104.66,-204.5 98.6602,-210.5 92.6602,-210.5 92.6602,-210.5 12.8867,-210.5 12.8867,-210.5 6.88672,-210.5 0.886719,-204.5 0.886719,-198.5 0.886719,-198.5 0.886719,-186.5 0.886719,-186.5 0.886719,-180.5 6.88672,-174.5 12.8867,-174.5"/>
<text text-anchor="middle" x="52.7734" y="-199.1" font-family="sans-serif" font-size="8.00" fill="#1c2021">Person</text>
<polyline fill="none" stroke="#2e3436" stroke-width="1.5" points="0.886719,-192.5 104.66,-192.5 "/>
<text text-anchor="start" x="8.88672" y="-181.1" font-family="sans-serif" font-size="8.00" fill="#1c2021">name = &#39;name of person&#39;</text>
</g>
<!-- N3&#45;&gt;N0 -->
<g id="edge1" class="edge"><title>N3&#45;&gt;N0</title>
<path fill="none" stroke="#4e9a06" stroke-width="2" d="M52.7734,-174.34C52.7734,-161.639 52.7734,-144.087 52.7734,-129.512"/>
<polygon fill="#4e9a06" stroke="#4e9a06" stroke-width="2" points="52.7734,-121.771 56.1485,-129.271 53.2735,-125.521 53.2735,-129.271 52.7735,-129.271 52.2735,-129.271 52.2735,-125.521 49.3985,-129.271 52.7734,-121.771 52.7734,-121.771"/>
<text text-anchor="middle" x="93.9844" y="-149.6" font-family="sans-serif" font-size="8.00" fill="#4e9a06">PLAYED</text>
<text text-anchor="start" x="52.7734" y="-141.6" font-family="sans-serif" font-size="8.00" fill="#4e9a06">roles = [&#39;role(s) played&#39;]</text>
</g>
</g>
</svg>
