<?xml version="1.0" encoding="UTF-8" standalone="no"?>
<!DOCTYPE svg PUBLIC "-//W3C//DTD SVG 1.1//EN"
 "http://www.w3.org/Graphics/SVG/1.1/DTD/svg11.dtd">
<!-- Generated by graphviz version 2.38.0 (20140413.2041)
 -->
<!-- Title: g Pages: 1 -->
<svg width="504pt" height="146pt"
 viewBox="0.00 0.00 504.00 145.88" xmlns="http://www.w3.org/2000/svg" xmlns:xlink="http://www.w3.org/1999/xlink">
<g id="graph0" class="graph" transform="scale(0.666096 0.666096) rotate(0) translate(4 215)">
<title>g</title>
<polygon fill="white" stroke="none" points="-4,4 -4,-215 752.647,-215 752.647,4 -4,4"/>
<!-- N0 -->
<g id="node1" class="node"><title>N0</title>
<path fill="#ffffff" stroke="#2e3436" stroke-width="1.5" d="M369.864,-81.5C369.864,-81.5 425.313,-81.5 425.313,-81.5 431.313,-81.5 437.313,-87.5 437.313,-93.5 437.313,-93.5 437.313,-109.5 437.313,-109.5 437.313,-115.5 431.313,-121.5 425.313,-121.5 425.313,-121.5 369.864,-121.5 369.864,-121.5 363.864,-121.5 357.864,-115.5 357.864,-109.5 357.864,-109.5 357.864,-93.5 357.864,-93.5 357.864,-87.5 363.864,-81.5 369.864,-81.5"/>
<text text-anchor="middle" x="397.589" y="-111.1" font-family="sans-serif" font-size="8.00" fill="#1c2021">Movie</text>
<polyline fill="none" stroke="#2e3436" stroke-width="1.5" points="357.864,-105.5 437.313,-105.5 "/>
<text text-anchor="start" x="365.864" y="-95.1" font-family="sans-serif" font-size="8.00" fill="#1c2021">title = &#39;Wall Street&#39;</text>
<text text-anchor="start" x="365.864" y="-87.1" font-family="sans-serif" font-size="8.00" fill="#1c2021">year = 1987</text>
</g>
<!-- N8 -->
<g id="node8" class="node"><title>N8</title>
<path fill="#ffffff" stroke="#2e3436" stroke-width="1.5" d="M377.272,-0.5C377.272,-0.5 417.905,-0.5 417.905,-0.5 423.905,-0.5 429.905,-6.5 429.905,-12.5 429.905,-12.5 429.905,-24.5 429.905,-24.5 429.905,-30.5 423.905,-36.5 417.905,-36.5 417.905,-36.5 377.272,-36.5 377.272,-36.5 371.272,-36.5 365.272,-30.5 365.272,-24.5 365.272,-24.5 365.272,-12.5 365.272,-12.5 365.272,-6.5 371.272,-0.5 377.272,-0.5"/>
<text text-anchor="middle" x="397.589" y="-25.1" font-family="sans-serif" font-size="8.00" fill="#1c2021">Country</text>
<polyline fill="none" stroke="#2e3436" stroke-width="1.5" points="365.272,-18.5 429.905,-18.5 "/>
<text text-anchor="start" x="373.272" y="-7.1" font-family="sans-serif" font-size="8.00" fill="#1c2021">name = &#39;USA&#39;</text>
</g>
<!-- N0&#45;&gt;N8 -->
<g id="edge7" class="edge"><title>N0&#45;&gt;N8</title>
<path fill="none" stroke="#2e3436" stroke-width="2" d="M397.589,-81.3041C397.589,-70.2809 397.589,-56.3142 397.589,-44.4477"/>
<polygon fill="#2e3436" stroke="#2e3436" stroke-width="2" points="397.589,-36.6301 400.964,-44.13 398.089,-40.38 398.089,-44.13 397.589,-44.1301 397.089,-44.1301 397.089,-40.3801 394.214,-44.1301 397.589,-36.6301 397.589,-36.6301"/>
<text text-anchor="middle" x="415.37" y="-56.6" font-family="sans-serif" font-size="8.00" fill="#2e3436">MADE_IN</text>
</g>
<!-- N1 -->
<g id="node2" class="node"><title>N1</title>
<path fill="#ffffff" stroke="#2e3436" stroke-width="1.5" d="M533.915,-81.5C533.915,-81.5 653.262,-81.5 653.262,-81.5 659.262,-81.5 665.262,-87.5 665.262,-93.5 665.262,-93.5 665.262,-109.5 665.262,-109.5 665.262,-115.5 659.262,-121.5 653.262,-121.5 653.262,-121.5 533.915,-121.5 533.915,-121.5 527.915,-121.5 521.915,-115.5 521.915,-109.5 521.915,-109.5 521.915,-93.5 521.915,-93.5 521.915,-87.5 527.915,-81.5 533.915,-81.5"/>
<text text-anchor="middle" x="593.589" y="-111.1" font-family="sans-serif" font-size="8.00" fill="#1c2021">Movie</text>
<polyline fill="none" stroke="#2e3436" stroke-width="1.5" points="521.915,-105.5 665.262,-105.5 "/>
<text text-anchor="start" x="529.915" y="-95.1" font-family="sans-serif" font-size="8.00" fill="#1c2021">title = &#39;The Shawshank Redemption&#39;</text>
<text text-anchor="start" x="529.915" y="-87.1" font-family="sans-serif" font-size="8.00" fill="#1c2021">year = 1994</text>
</g>
<!-- N1&#45;&gt;N8 -->
<g id="edge8" class="edge"><title>N1&#45;&gt;N8</title>
<path fill="none" stroke="#2e3436" stroke-width="2" d="M547.139,-81.3041C513.567,-67.4297 468.71,-48.8921 436.906,-35.7487"/>
<polygon fill="#2e3436" stroke="#2e3436" stroke-width="2" points="429.925,-32.8634 438.145,-32.6089 433.582,-33.8336 437.047,-35.2659 436.856,-35.728 436.665,-36.1901 433.2,-34.7578 435.567,-38.8472 429.925,-32.8634 429.925,-32.8634"/>
<text text-anchor="middle" x="519.37" y="-56.6" font-family="sans-serif" font-size="8.00" fill="#2e3436">MADE_IN</text>
</g>
<!-- N2 -->
<g id="node3" class="node"><title>N2</title>
<path fill="#ffffff" stroke="#2e3436" stroke-width="1.5" d="M178.589,-81.5C178.589,-81.5 280.589,-81.5 280.589,-81.5 286.589,-81.5 292.589,-87.5 292.589,-93.5 292.589,-93.5 292.589,-109.5 292.589,-109.5 292.589,-115.5 286.589,-121.5 280.589,-121.5 280.589,-121.5 178.589,-121.5 178.589,-121.5 172.589,-121.5 166.589,-115.5 166.589,-109.5 166.589,-109.5 166.589,-93.5 166.589,-93.5 166.589,-87.5 172.589,-81.5 178.589,-81.5"/>
<text text-anchor="middle" x="229.589" y="-111.1" font-family="sans-serif" font-size="8.00" fill="#1c2021">Movie</text>
<polyline fill="none" stroke="#2e3436" stroke-width="1.5" points="166.589,-105.5 292.589,-105.5 "/>
<text text-anchor="start" x="174.589" y="-95.1" font-family="sans-serif" font-size="8.00" fill="#1c2021">title = &#39;The American President&#39;</text>
<text text-anchor="start" x="174.589" y="-87.1" font-family="sans-serif" font-size="8.00" fill="#1c2021">year = 1995</text>
</g>
<!-- N2&#45;&gt;N8 -->
<g id="edge9" class="edge"><title>N2&#45;&gt;N8</title>
<path fill="none" stroke="#2e3436" stroke-width="2" d="M269.402,-81.3041C296.213,-68.3776 331.419,-51.4034 358.15,-38.5149"/>
<polygon fill="#2e3436" stroke="#2e3436" stroke-width="2" points="365.102,-35.1634 359.812,-41.4608 361.941,-37.2424 358.563,-38.871 358.346,-38.4207 358.129,-37.9703 361.507,-36.3416 356.88,-35.3806 365.102,-35.1634 365.102,-35.1634"/>
<text text-anchor="middle" x="342.37" y="-56.6" font-family="sans-serif" font-size="8.00" fill="#2e3436">MADE_IN</text>
</g>
<!-- N3 -->
<g id="node4" class="node"><title>N3</title>
<path fill="#ffffff" stroke="#2e3436" stroke-width="1.5" d="M15.7058,-174.5C15.7058,-174.5 87.4714,-174.5 87.4714,-174.5 93.4714,-174.5 99.4714,-180.5 99.4714,-186.5 99.4714,-186.5 99.4714,-198.5 99.4714,-198.5 99.4714,-204.5 93.4714,-210.5 87.4714,-210.5 87.4714,-210.5 15.7058,-210.5 15.7058,-210.5 9.70582,-210.5 3.70582,-204.5 3.70582,-198.5 3.70582,-198.5 3.70582,-186.5 3.70582,-186.5 3.70582,-180.5 9.70582,-174.5 15.7058,-174.5"/>
<text text-anchor="middle" x="51.5886" y="-199.1" font-family="sans-serif" font-size="8.00" fill="#1c2021">Person</text>
<polyline fill="none" stroke="#2e3436" stroke-width="1.5" points="3.70582,-192.5 99.4714,-192.5 "/>
<text text-anchor="start" x="11.7058" y="-181.1" font-family="sans-serif" font-size="8.00" fill="#1c2021">name = &#39;Martin Sheen&#39;</text>
</g>
<!-- N3&#45;&gt;N0 -->
<g id="edge2" class="edge"><title>N3&#45;&gt;N0</title>
<path fill="none" stroke="#4e9a06" stroke-width="2" d="M78.7085,-174.276C98.389,-162.634 126.072,-147.98 152.405,-140 218.431,-119.991 238.519,-133.241 306.589,-122 320.712,-119.668 335.958,-116.614 349.859,-113.618"/>
<polygon fill="#4e9a06" stroke="#4e9a06" stroke-width="2" points="357.428,-111.965 350.821,-116.863 353.871,-113.254 350.207,-114.054 350.1,-113.566 349.994,-113.077 353.657,-112.277 349.38,-110.268 357.428,-111.965 357.428,-111.965"/>
<text text-anchor="middle" x="184.68" y="-149.6" font-family="sans-serif" font-size="8.00" fill="#4e9a06">PLAYED</text>
<text text-anchor="start" x="152.589" y="-141.6" font-family="sans-serif" font-size="8.00" fill="#4e9a06">roles = [&#39;Carl Fox&#39;]</text>
</g>
<!-- N3&#45;&gt;N2 -->
<g id="edge5" class="edge"><title>N3&#45;&gt;N2</title>
<path fill="none" stroke="#4e9a06" stroke-width="2" d="M19.8024,-174.447C5.49324,-164.58 -6.18216,-151.813 3.83082,-140 23.4686,-116.831 100.169,-107.961 158.772,-104.574"/>
<polygon fill="#4e9a06" stroke="#4e9a06" stroke-width="2" points="166.549,-104.15 159.244,-107.929 162.832,-104.854 159.087,-105.058 159.06,-104.559 159.033,-104.059 162.777,-103.855 158.876,-101.189 166.549,-104.15 166.549,-104.15"/>
<text text-anchor="middle" x="50.4675" y="-149.6" font-family="sans-serif" font-size="8.00" fill="#4e9a06">PLAYED</text>
<text text-anchor="start" x="4.58863" y="-141.6" font-family="sans-serif" font-size="8.00" fill="#4e9a06">roles = [&#39;A.J. MacInerney&#39;]</text>
</g>
<!-- N4 -->
<g id="node5" class="node"><title>N4</title>
<path fill="#ffffff" stroke="#2e3436" stroke-width="1.5" d="M480.147,-174.5C480.147,-174.5 555.03,-174.5 555.03,-174.5 561.03,-174.5 567.03,-180.5 567.03,-186.5 567.03,-186.5 567.03,-198.5 567.03,-198.5 567.03,-204.5 561.03,-210.5 555.03,-210.5 555.03,-210.5 480.147,-210.5 480.147,-210.5 474.147,-210.5 468.147,-204.5 468.147,-198.5 468.147,-198.5 468.147,-186.5 468.147,-186.5 468.147,-180.5 474.147,-174.5 480.147,-174.5"/>
<text text-anchor="middle" x="517.589" y="-199.1" font-family="sans-serif" font-size="8.00" fill="#1c2021">Person</text>
<polyline fill="none" stroke="#2e3436" stroke-width="1.5" points="468.147,-192.5 567.03,-192.5 "/>
<text text-anchor="start" x="476.147" y="-181.1" font-family="sans-serif" font-size="8.00" fill="#1c2021">name = &#39;Charlie Sheen&#39;</text>
</g>
<!-- N4&#45;&gt;N0 -->
<g id="edge1" class="edge"><title>N4&#45;&gt;N0</title>
<path fill="none" stroke="#4e9a06" stroke-width="2" d="M504.519,-174.272C495.747,-163.501 483.474,-149.852 470.589,-140 462.561,-133.862 453.379,-128.247 444.298,-123.336"/>
<polygon fill="#4e9a06" stroke="#4e9a06" stroke-width="2" points="437.394,-119.721 445.604,-120.21 440.948,-121.017 444.27,-122.757 444.038,-123.2 443.806,-123.643 440.484,-121.903 442.472,-126.19 437.394,-119.721 437.394,-119.721"/>
<text text-anchor="middle" x="520.464" y="-149.6" font-family="sans-serif" font-size="8.00" fill="#4e9a06">PLAYED</text>
<text text-anchor="start" x="488.589" y="-141.6" font-family="sans-serif" font-size="8.00" fill="#4e9a06">roles = [&#39;Bud Fox&#39;]</text>
</g>
<!-- N6 -->
<g id="node6" class="node"><title>N6</title>
<path fill="#ffffff" stroke="#2e3436" stroke-width="1.5" d="M607.817,-174.5C607.817,-174.5 693.36,-174.5 693.36,-174.5 699.36,-174.5 705.36,-180.5 705.36,-186.5 705.36,-186.5 705.36,-198.5 705.36,-198.5 705.36,-204.5 699.36,-210.5 693.36,-210.5 693.36,-210.5 607.817,-210.5 607.817,-210.5 601.817,-210.5 595.817,-204.5 595.817,-198.5 595.817,-198.5 595.817,-186.5 595.817,-186.5 595.817,-180.5 601.817,-174.5 607.817,-174.5"/>
<text text-anchor="middle" x="650.589" y="-199.1" font-family="sans-serif" font-size="8.00" fill="#1c2021">Person</text>
<polyline fill="none" stroke="#2e3436" stroke-width="1.5" points="595.817,-192.5 705.36,-192.5 "/>
<text text-anchor="start" x="603.817" y="-181.1" font-family="sans-serif" font-size="8.00" fill="#1c2021">name = &#39;Morgan Freeman&#39;</text>
</g>
<!-- N6&#45;&gt;N1 -->
<g id="edge6" class="edge"><title>N6&#45;&gt;N1</title>
<path fill="none" stroke="#4e9a06" stroke-width="2" d="M639.598,-174.34C631.238,-161.286 619.596,-143.108 610.115,-128.304"/>
<polygon fill="#4e9a06" stroke="#4e9a06" stroke-width="2" points="605.93,-121.771 612.818,-126.266 608.374,-124.659 610.396,-127.817 609.975,-128.086 609.554,-128.356 607.532,-125.198 607.133,-129.907 605.93,-121.771 605.93,-121.771"/>
<text text-anchor="middle" x="688.118" y="-149.6" font-family="sans-serif" font-size="8.00" fill="#4e9a06">PLAYED</text>
<text text-anchor="start" x="627.589" y="-141.6" font-family="sans-serif" font-size="8.00" fill="#4e9a06">roles = [&#39;Ellis Boyd &#39;Red&#39; Redding&#39;]</text>
</g>
<!-- N7 -->
<g id="node7" class="node"><title>N7</title>
<path fill="#ffffff" stroke="#2e3436" stroke-width="1.5" d="M265.927,-174.5C265.927,-174.5 349.251,-174.5 349.251,-174.5 355.251,-174.5 361.251,-180.5 361.251,-186.5 361.251,-186.5 361.251,-198.5 361.251,-198.5 361.251,-204.5 355.251,-210.5 349.251,-210.5 349.251,-210.5 265.927,-210.5 265.927,-210.5 259.927,-210.5 253.927,-204.5 253.927,-198.5 253.927,-198.5 253.927,-186.5 253.927,-186.5 253.927,-180.5 259.927,-174.5 265.927,-174.5"/>
<text text-anchor="middle" x="307.589" y="-199.1" font-family="sans-serif" font-size="8.00" fill="#1c2021">Person</text>
<polyline fill="none" stroke="#2e3436" stroke-width="1.5" points="253.927,-192.5 361.251,-192.5 "/>
<text text-anchor="start" x="261.927" y="-181.1" font-family="sans-serif" font-size="8.00" fill="#1c2021">name = &#39;Michael Douglas&#39;</text>
</g>
<!-- N7&#45;&gt;N0 -->
<g id="edge3" class="edge"><title>N7&#45;&gt;N0</title>
<path fill="none" stroke="#4e9a06" stroke-width="2" d="M340.848,-174.356C349.167,-169.147 357.679,-162.94 364.589,-156 372.582,-147.972 379.518,-137.659 384.941,-128.232"/>
<polygon fill="#4e9a06" stroke="#4e9a06" stroke-width="2" points="388.616,-121.571 387.948,-129.768 387.242,-125.096 385.431,-128.38 384.993,-128.138 384.555,-127.897 386.367,-124.613 382.038,-126.508 388.616,-121.571 388.616,-121.571"/>
<text text-anchor="middle" x="420.581" y="-149.6" font-family="sans-serif" font-size="8.00" fill="#4e9a06">PLAYED</text>
<text text-anchor="start" x="377.589" y="-141.6" font-family="sans-serif" font-size="8.00" fill="#4e9a06">roles = [&#39;Gordon Gekko&#39;]</text>
</g>
<!-- N7&#45;&gt;N2 -->
<g id="edge4" class="edge"><title>N7&#45;&gt;N2</title>
<path fill="none" stroke="#4e9a06" stroke-width="2" d="M253.759,-177.63C243.571,-172.506 234.183,-165.518 228.007,-156 222.909,-148.144 222.07,-138.182 222.927,-128.99"/>
<polygon fill="#4e9a06" stroke="#4e9a06" stroke-width="2" points="223.989,-121.512 226.276,-129.412 223.957,-125.295 223.429,-129.008 222.934,-128.938 222.439,-128.867 222.967,-125.155 219.593,-128.463 223.989,-121.512 223.989,-121.512"/>
<text text-anchor="middle" x="295.38" y="-149.6" font-family="sans-serif" font-size="8.00" fill="#4e9a06">PLAYED</text>
<text text-anchor="start" x="228.589" y="-141.6" font-family="sans-serif" font-size="8.00" fill="#4e9a06">roles = [&#39;President Andrew Shepherd&#39;]</text>
</g>
</g>
</svg>
