<?xml version="1.0" encoding="UTF-8" standalone="no"?>
<!DOCTYPE svg PUBLIC "-//W3C//DTD SVG 1.1//EN"
 "http://www.w3.org/Graphics/SVG/1.1/DTD/svg11.dtd">
<!-- Generated by graphviz version 2.38.0 (20140413.2041)
 -->
<!-- Title: g Pages: 1 -->
<svg width="233pt" height="134pt"
 viewBox="0.00 0.00 233.42 134.00" xmlns="http://www.w3.org/2000/svg" xmlns:xlink="http://www.w3.org/1999/xlink">
<g id="graph0" class="graph" transform="scale(1 1) rotate(0) translate(4 130)">
<title>g</title>
<polygon fill="white" stroke="none" points="-4,4 -4,-130 229.42,-130 229.42,4 -4,4"/>
<!-- N2 -->
<g id="node1" class="node"><title>N2</title>
<path fill="#ffffff" stroke="#2e3436" stroke-width="1.5" d="M12,-89.5C12,-89.5 76.1953,-89.5 76.1953,-89.5 82.1953,-89.5 88.1953,-95.5 88.1953,-101.5 88.1953,-101.5 88.1953,-113.5 88.1953,-113.5 88.1953,-119.5 82.1953,-125.5 76.1953,-125.5 76.1953,-125.5 12,-125.5 12,-125.5 6,-125.5 0,-119.5 0,-113.5 0,-113.5 0,-101.5 0,-101.5 0,-95.5 6,-89.5 12,-89.5"/>
<text text-anchor="start" x="8" y="-109.1" font-family="sans-serif" font-size="8.00" fill="#1c2021">name = &#39;Tom Hanks&#39;</text>
<text text-anchor="start" x="8" y="-101.1" font-family="sans-serif" font-size="8.00" fill="#1c2021">born = 1956</text>
</g>
<!-- N3 -->
<g id="node2" class="node"><title>N3</title>
<path fill="#ffffff" stroke="#2e3436" stroke-width="1.5" d="M74.1152,-0.5C74.1152,-0.5 140.08,-0.5 140.08,-0.5 146.08,-0.5 152.08,-6.5 152.08,-12.5 152.08,-12.5 152.08,-24.5 152.08,-24.5 152.08,-30.5 146.08,-36.5 140.08,-36.5 140.08,-36.5 74.1152,-36.5 74.1152,-36.5 68.1152,-36.5 62.1152,-30.5 62.1152,-24.5 62.1152,-24.5 62.1152,-12.5 62.1152,-12.5 62.1152,-6.5 68.1152,-0.5 74.1152,-0.5"/>
<text text-anchor="start" x="70.1152" y="-20.1" font-family="sans-serif" font-size="8.00" fill="#1c2021">title = &#39;Forrest Gump&#39;</text>
<text text-anchor="start" x="70.1152" y="-12.1" font-family="sans-serif" font-size="8.00" fill="#1c2021">released = 1994</text>
</g>
<!-- N2&#45;&gt;N3 -->
<g id="edge1" class="edge"><title>N2&#45;&gt;N3</title>
<path fill="none" stroke="#2e3436" stroke-width="2" d="M53.6781,-89.3267C59.6346,-79.0803 67.6842,-65.9712 75.8047,-55 78.8917,-50.8293 82.3601,-46.5559 85.8339,-42.4842"/>
<polygon fill="#2e3436" stroke="#2e3436" stroke-width="2" points="90.8834,-36.6985 88.4945,-44.5684 88.7943,-39.8526 86.3284,-42.6779 85.9517,-42.3491 85.575,-42.0204 88.0408,-39.1951 83.409,-40.1299 90.8834,-36.6985 90.8834,-36.6985"/>
<text text-anchor="middle" x="105.744" y="-64.6" font-family="sans-serif" font-size="8.00" fill="#1c2021">ACTED_IN</text>
<text text-anchor="start" x="76.0977" y="-56.6" font-family="sans-serif" font-size="8.00" fill="#1c2021">roles = [&#39;Forrest&#39;]</text>
</g>
<!-- N4 -->
<g id="node3" class="node"><title>N4</title>
<path fill="#ffffff" stroke="#2e3436" stroke-width="1.5" d="M128.775,-89.5C128.775,-89.5 213.42,-89.5 213.42,-89.5 219.42,-89.5 225.42,-95.5 225.42,-101.5 225.42,-101.5 225.42,-113.5 225.42,-113.5 225.42,-119.5 219.42,-125.5 213.42,-125.5 213.42,-125.5 128.775,-125.5 128.775,-125.5 122.775,-125.5 116.775,-119.5 116.775,-113.5 116.775,-113.5 116.775,-101.5 116.775,-101.5 116.775,-95.5 122.775,-89.5 128.775,-89.5"/>
<text text-anchor="start" x="124.775" y="-109.1" font-family="sans-serif" font-size="8.00" fill="#1c2021">name = &#39;Robert Zemeckis&#39;</text>
<text text-anchor="start" x="124.775" y="-101.1" font-family="sans-serif" font-size="8.00" fill="#1c2021">born = 1951</text>
</g>
<!-- N4&#45;&gt;N3 -->
<g id="edge2" class="edge"><title>N4&#45;&gt;N3</title>
<path fill="none" stroke="#2e3436" stroke-width="2" d="M161.007,-89.3774C154.765,-79.1489 146.384,-66.0409 138.098,-55 134.996,-50.867 131.537,-46.6126 128.088,-42.5482"/>
<polygon fill="#2e3436" stroke="#2e3436" stroke-width="2" points="123.082,-36.7658 130.542,-40.2271 125.914,-39.2737 128.369,-42.1089 127.991,-42.4361 127.613,-42.7634 125.158,-39.9282 125.439,-44.6452 123.082,-36.7658 123.082,-36.7658"/>
<text text-anchor="middle" x="168.543" y="-60.6" font-family="sans-serif" font-size="8.00" fill="#1c2021">DIRECTED</text>
</g>
</g>
</svg>
