<?xml version="1.0" encoding="UTF-8" standalone="no"?>
<!DOCTYPE svg PUBLIC "-//W3C//DTD SVG 1.1//EN"
 "http://www.w3.org/Graphics/SVG/1.1/DTD/svg11.dtd">
<!-- Generated by graphviz version 2.38.0 (20140413.2041)
 -->
<!-- Title: g Pages: 1 -->
<svg width="360pt" height="45pt"
 viewBox="0.00 0.00 360.14 45.00" xmlns="http://www.w3.org/2000/svg" xmlns:xlink="http://www.w3.org/1999/xlink">
<g id="graph0" class="graph" transform="scale(1 1) rotate(0) translate(4 41)">
<title>g</title>
<polygon fill="white" stroke="none" points="-4,4 -4,-41 356.141,-41 356.141,4 -4,4"/>
<!-- N2 -->
<g id="node1" class="node"><title>N2</title>
<path fill="#ffffff" stroke="#2e3436" stroke-width="1.5" d="M12,-0.5C12,-0.5 117.543,-0.5 117.543,-0.5 123.543,-0.5 129.543,-6.5 129.543,-12.5 129.543,-12.5 129.543,-24.5 129.543,-24.5 129.543,-30.5 123.543,-36.5 117.543,-36.5 117.543,-36.5 12,-36.5 12,-36.5 6,-36.5 0,-30.5 0,-24.5 0,-24.5 0,-12.5 0,-12.5 0,-6.5 6,-0.5 12,-0.5"/>
<text text-anchor="middle" x="20.6738" y="-16.1" font-family="sans-serif" font-size="8.00" fill="#1c2021">Person</text>
<polyline fill="none" stroke="#2e3436" stroke-width="1.5" points="41.3477,-0.5 41.3477,-36.5 "/>
<text text-anchor="start" x="49.3477" y="-20.1" font-family="sans-serif" font-size="8.00" fill="#1c2021">name = &#39;Tom Hanks&#39;</text>
<text text-anchor="start" x="49.3477" y="-12.1" font-family="sans-serif" font-size="8.00" fill="#1c2021">born = 1956</text>
</g>
<!-- N3 -->
<g id="node2" class="node"><title>N3</title>
<path fill="#ffffff" stroke="#2e3436" stroke-width="1.5" d="M236.836,-0.5C236.836,-0.5 340.141,-0.5 340.141,-0.5 346.141,-0.5 352.141,-6.5 352.141,-12.5 352.141,-12.5 352.141,-24.5 352.141,-24.5 352.141,-30.5 346.141,-36.5 340.141,-36.5 340.141,-36.5 236.836,-36.5 236.836,-36.5 230.836,-36.5 224.836,-30.5 224.836,-24.5 224.836,-24.5 224.836,-12.5 224.836,-12.5 224.836,-6.5 230.836,-0.5 236.836,-0.5"/>
<text text-anchor="middle" x="243.506" y="-16.1" font-family="sans-serif" font-size="8.00" fill="#1c2021">Movie</text>
<polyline fill="none" stroke="#2e3436" stroke-width="1.5" points="262.176,-0.5 262.176,-36.5 "/>
<text text-anchor="start" x="270.176" y="-20.1" font-family="sans-serif" font-size="8.00" fill="#1c2021">title = &#39;Forrest Gump&#39;</text>
<text text-anchor="start" x="270.176" y="-12.1" font-family="sans-serif" font-size="8.00" fill="#1c2021">released = 1994</text>
</g>
<!-- N2&#45;&gt;N3 -->
<g id="edge1" class="edge"><title>N2&#45;&gt;N3</title>
<path fill="none" stroke="#2e3436" stroke-width="2" d="M129.604,-18.5C156.85,-18.5 188.747,-18.5 216.713,-18.5"/>
<polygon fill="#2e3436" stroke="#2e3436" stroke-width="2" points="224.489,-18.5 216.989,-21.8751 220.739,-19 216.989,-19.0001 216.989,-18.5001 216.989,-18.0001 220.739,-18 216.989,-15.1251 224.489,-18.5 224.489,-18.5"/>
<text text-anchor="middle" x="177.189" y="-28.1" font-family="sans-serif" font-size="8.00" fill="#1c2021">ACTED_IN</text>
<text text-anchor="start" x="147.543" y="-20.1" font-family="sans-serif" font-size="8.00" fill="#1c2021">roles = [&#39;Forrest&#39;]</text>
</g>
</g>
</svg>
