<?xml version="1.0" encoding="UTF-8" standalone="no"?>
<!DOCTYPE svg PUBLIC "-//W3C//DTD SVG 1.1//EN"
 "http://www.w3.org/Graphics/SVG/1.1/DTD/svg11.dtd">
<!-- Generated by graphviz version 2.38.0 (20140413.2041)
 -->
<!-- Title: g Pages: 1 -->
<svg width="281pt" height="45pt"
 viewBox="0.00 0.00 281.45 45.00" xmlns="http://www.w3.org/2000/svg" xmlns:xlink="http://www.w3.org/1999/xlink">
<g id="graph0" class="graph" transform="scale(1 1) rotate(0) translate(4 41)">
<title>g</title>
<polygon fill="white" stroke="none" points="-4,4 -4,-41 277.453,-41 277.453,4 -4,4"/>
<!-- N2 -->
<g id="node1" class="node"><title>N2</title>
<path fill="#ffffff" stroke="#2e3436" stroke-width="1.5" d="M12,-0.5C12,-0.5 76.1953,-0.5 76.1953,-0.5 82.1953,-0.5 88.1953,-6.5 88.1953,-12.5 88.1953,-12.5 88.1953,-24.5 88.1953,-24.5 88.1953,-30.5 82.1953,-36.5 76.1953,-36.5 76.1953,-36.5 12,-36.5 12,-36.5 6,-36.5 0,-30.5 0,-24.5 0,-24.5 0,-12.5 0,-12.5 0,-6.5 6,-0.5 12,-0.5"/>
<text text-anchor="start" x="8" y="-20.1" font-family="sans-serif" font-size="8.00" fill="#1c2021">name = &#39;Tom Hanks&#39;</text>
<text text-anchor="start" x="8" y="-12.1" font-family="sans-serif" font-size="8.00" fill="#1c2021">born = 1956</text>
</g>
<!-- N3 -->
<g id="node2" class="node"><title>N3</title>
<path fill="#ffffff" stroke="#2e3436" stroke-width="1.5" d="M195.488,-0.5C195.488,-0.5 261.453,-0.5 261.453,-0.5 267.453,-0.5 273.453,-6.5 273.453,-12.5 273.453,-12.5 273.453,-24.5 273.453,-24.5 273.453,-30.5 267.453,-36.5 261.453,-36.5 261.453,-36.5 195.488,-36.5 195.488,-36.5 189.488,-36.5 183.488,-30.5 183.488,-24.5 183.488,-24.5 183.488,-12.5 183.488,-12.5 183.488,-6.5 189.488,-0.5 195.488,-0.5"/>
<text text-anchor="start" x="191.488" y="-20.1" font-family="sans-serif" font-size="8.00" fill="#1c2021">title = &#39;Forrest Gump&#39;</text>
<text text-anchor="start" x="191.488" y="-12.1" font-family="sans-serif" font-size="8.00" fill="#1c2021">released = 1994</text>
</g>
<!-- N2&#45;&gt;N3 -->
<g id="edge1" class="edge"><title>N2&#45;&gt;N3</title>
<path fill="none" stroke="#2e3436" stroke-width="2" d="M88.3175,-18.5C114.506,-18.5 148.073,-18.5 175.678,-18.5"/>
<polygon fill="#2e3436" stroke="#2e3436" stroke-width="2" points="183.294,-18.5 175.794,-21.8751 179.544,-19 175.794,-19.0001 175.794,-18.5001 175.794,-18.0001 179.544,-18 175.794,-15.1251 183.294,-18.5 183.294,-18.5"/>
<text text-anchor="middle" x="135.842" y="-28.1" font-family="sans-serif" font-size="8.00" fill="#1c2021">ACTED_IN</text>
<text text-anchor="start" x="106.195" y="-20.1" font-family="sans-serif" font-size="8.00" fill="#1c2021">roles = [&#39;Forrest&#39;]</text>
</g>
</g>
</svg>
