<?xml version="1.0" encoding="UTF-8" standalone="no"?>
<!DOCTYPE svg PUBLIC "-//W3C//DTD SVG 1.1//EN"
 "http://www.w3.org/Graphics/SVG/1.1/DTD/svg11.dtd">
<!-- Generated by graphviz version 2.38.0 (20140413.2041)
 -->
<!-- Title: g Pages: 1 -->
<svg width="155pt" height="45pt"
 viewBox="0.00 0.00 155.42 45.00" xmlns="http://www.w3.org/2000/svg" xmlns:xlink="http://www.w3.org/1999/xlink">
<g id="graph0" class="graph" transform="scale(1 1) rotate(0) translate(4 41)">
<title>g</title>
<polygon fill="white" stroke="none" points="-4,4 -4,-41 151.418,-41 151.418,4 -4,4"/>
<!-- N2 -->
<g id="node1" class="node"><title>N2</title>
<path fill="#ffffff" stroke="#2e3436" stroke-width="1.5" d="M12,-0.5C12,-0.5 76.1953,-0.5 76.1953,-0.5 82.1953,-0.5 88.1953,-6.5 88.1953,-12.5 88.1953,-12.5 88.1953,-24.5 88.1953,-24.5 88.1953,-30.5 82.1953,-36.5 76.1953,-36.5 76.1953,-36.5 12,-36.5 12,-36.5 6,-36.5 0,-30.5 0,-24.5 0,-24.5 0,-12.5 0,-12.5 0,-6.5 6,-0.5 12,-0.5"/>
<text text-anchor="start" x="8" y="-20.1" font-family="sans-serif" font-size="8.00" fill="#1c2021">name = &#39;Tom Hanks&#39;</text>
<text text-anchor="start" x="8" y="-12.1" font-family="sans-serif" font-size="8.00" fill="#1c2021">born = 1956</text>
</g>
<!-- N2&#45;&gt;N2 -->
<g id="edge1" class="edge"><title>N2&#45;&gt;N2</title>
<path fill="none" stroke="#2e3436" stroke-width="2" d="M88.3474,-25.2434C104.239,-25.3884 117.195,-23.1406 117.195,-18.5 117.195,-14.6207 108.142,-12.4135 95.8878,-11.8784"/>
<polygon fill="#2e3436" stroke="#2e3436" stroke-width="2" points="88.3474,-11.7566 95.901,-8.5033 92.105,-11.3173 95.8545,-11.3779 95.8464,-11.8779 95.8383,-12.3778 92.0888,-12.3172 95.7918,-15.2524 88.3474,-11.7566 88.3474,-11.7566"/>
<text text-anchor="middle" x="132.307" y="-16.1" font-family="sans-serif" font-size="8.00" fill="#1c2021">KNOWS</text>
</g>
</g>
</svg>
