<?xml version="1.0" encoding="UTF-8" standalone="no"?>
<!DOCTYPE svg PUBLIC "-//W3C//DTD SVG 1.1//EN"
 "http://www.w3.org/Graphics/SVG/1.1/DTD/svg11.dtd">
<!-- Generated by graphviz version 2.38.0 (20140413.2041)
 -->
<!-- Title: g Pages: 1 -->
<svg width="155pt" height="49pt"
 viewBox="0.00 0.00 155.42 49.00" xmlns="http://www.w3.org/2000/svg" xmlns:xlink="http://www.w3.org/1999/xlink">
<g id="graph0" class="graph" transform="scale(1 1) rotate(0) translate(4 45)">
<title>g</title>
<polygon fill="white" stroke="none" points="-4,4 -4,-45 151.418,-45 151.418,4 -4,4"/>
<!-- N2 -->
<g id="node1" class="node"><title>N2</title>
<path fill="#ffffff" stroke="#2e3436" stroke-width="1.5" d="M12,-0.5C12,-0.5 76.1953,-0.5 76.1953,-0.5 82.1953,-0.5 88.1953,-6.5 88.1953,-12.5 88.1953,-12.5 88.1953,-28.5 88.1953,-28.5 88.1953,-34.5 82.1953,-40.5 76.1953,-40.5 76.1953,-40.5 12,-40.5 12,-40.5 6,-40.5 0,-34.5 0,-28.5 0,-28.5 0,-12.5 0,-12.5 0,-6.5 6,-0.5 12,-0.5"/>
<text text-anchor="middle" x="44.0977" y="-30.1" font-family="sans-serif" font-size="8.00" fill="#1c2021">Person</text>
<polyline fill="none" stroke="#2e3436" stroke-width="1.5" points="0,-24.5 88.1953,-24.5 "/>
<text text-anchor="start" x="8" y="-14.1" font-family="sans-serif" font-size="8.00" fill="#1c2021">name = &#39;Tom Hanks&#39;</text>
<text text-anchor="start" x="8" y="-6.1" font-family="sans-serif" font-size="8.00" fill="#1c2021">born = 1956</text>
</g>
<!-- N2&#45;&gt;N2 -->
<g id="edge1" class="edge"><title>N2&#45;&gt;N2</title>
<path fill="none" stroke="#2e3436" stroke-width="2" d="M88.3474,-27.9927C104.239,-28.1538 117.195,-25.6562 117.195,-20.5 117.195,-16.1897 108.142,-13.7373 95.8878,-13.1427"/>
<polygon fill="#2e3436" stroke="#2e3436" stroke-width="2" points="88.3474,-13.0073 95.9068,-9.7676 92.1057,-12.5748 95.8551,-12.6421 95.8462,-13.1421 95.8372,-13.642 92.0878,-13.5746 95.7855,-16.5165 88.3474,-13.0073 88.3474,-13.0073"/>
<text text-anchor="middle" x="132.307" y="-18.1" font-family="sans-serif" font-size="8.00" fill="#1c2021">KNOWS</text>
</g>
</g>
</svg>
