<?xml version="1.0" encoding="UTF-8" standalone="no"?>
<!DOCTYPE svg PUBLIC "-//W3C//DTD SVG 1.1//EN"
 "http://www.w3.org/Graphics/SVG/1.1/DTD/svg11.dtd">
<!-- Generated by graphviz version 2.38.0 (20140413.2041)
 -->
<!-- Title: g Pages: 1 -->
<svg width="352pt" height="57pt"
 viewBox="0.00 0.00 352.42 57.00" xmlns="http://www.w3.org/2000/svg" xmlns:xlink="http://www.w3.org/1999/xlink">
<g id="graph0" class="graph" transform="scale(1 1) rotate(0) translate(4 53)">
<title>g</title>
<polygon fill="white" stroke="none" points="-4,4 -4,-53 348.42,-53 348.42,4 -4,4"/>
<!-- N2 -->
<g id="node1" class="node"><title>N2</title>
<path fill="#ffffff" stroke="#2e3436" stroke-width="1.5" d="M12,-0.5C12,-0.5 76.1953,-0.5 76.1953,-0.5 82.1953,-0.5 88.1953,-6.5 88.1953,-12.5 88.1953,-12.5 88.1953,-36.5 88.1953,-36.5 88.1953,-42.5 82.1953,-48.5 76.1953,-48.5 76.1953,-48.5 12,-48.5 12,-48.5 6,-48.5 0,-42.5 0,-36.5 0,-36.5 0,-12.5 0,-12.5 0,-6.5 6,-0.5 12,-0.5"/>
<text text-anchor="middle" x="44.0977" y="-38.1" font-family="sans-serif" font-size="8.00" fill="#1c2021">Person</text>
<text text-anchor="middle" x="44.0977" y="-30.1" font-family="sans-serif" font-size="8.00" fill="#1c2021">Actor</text>
<polyline fill="none" stroke="#2e3436" stroke-width="1.5" points="0,-24.5 88.1953,-24.5 "/>
<text text-anchor="start" x="8" y="-14.1" font-family="sans-serif" font-size="8.00" fill="#1c2021">name = &#39;Tom Hanks&#39;</text>
<text text-anchor="start" x="8" y="-6.1" font-family="sans-serif" font-size="8.00" fill="#1c2021">born = 1956</text>
</g>
<!-- N3 -->
<g id="node2" class="node"><title>N3</title>
<path fill="#ffffff" stroke="#2e3436" stroke-width="1.5" d="M129.115,-4.5C129.115,-4.5 195.08,-4.5 195.08,-4.5 201.08,-4.5 207.08,-10.5 207.08,-16.5 207.08,-16.5 207.08,-32.5 207.08,-32.5 207.08,-38.5 201.08,-44.5 195.08,-44.5 195.08,-44.5 129.115,-44.5 129.115,-44.5 123.115,-44.5 117.115,-38.5 117.115,-32.5 117.115,-32.5 117.115,-16.5 117.115,-16.5 117.115,-10.5 123.115,-4.5 129.115,-4.5"/>
<text text-anchor="middle" x="162.098" y="-34.1" font-family="sans-serif" font-size="8.00" fill="#1c2021">Movie</text>
<polyline fill="none" stroke="#2e3436" stroke-width="1.5" points="117.115,-28.5 207.08,-28.5 "/>
<text text-anchor="start" x="125.115" y="-18.1" font-family="sans-serif" font-size="8.00" fill="#1c2021">title = &#39;Forrest Gump&#39;</text>
<text text-anchor="start" x="125.115" y="-10.1" font-family="sans-serif" font-size="8.00" fill="#1c2021">released = 1994</text>
</g>
<!-- N4 -->
<g id="node3" class="node"><title>N4</title>
<path fill="#ffffff" stroke="#2e3436" stroke-width="1.5" d="M247.775,-0.5C247.775,-0.5 332.42,-0.5 332.42,-0.5 338.42,-0.5 344.42,-6.5 344.42,-12.5 344.42,-12.5 344.42,-36.5 344.42,-36.5 344.42,-42.5 338.42,-48.5 332.42,-48.5 332.42,-48.5 247.775,-48.5 247.775,-48.5 241.775,-48.5 235.775,-42.5 235.775,-36.5 235.775,-36.5 235.775,-12.5 235.775,-12.5 235.775,-6.5 241.775,-0.5 247.775,-0.5"/>
<text text-anchor="middle" x="290.098" y="-38.1" font-family="sans-serif" font-size="8.00" fill="#1c2021">Person</text>
<text text-anchor="middle" x="290.098" y="-30.1" font-family="sans-serif" font-size="8.00" fill="#1c2021">Director</text>
<polyline fill="none" stroke="#2e3436" stroke-width="1.5" points="235.775,-24.5 344.42,-24.5 "/>
<text text-anchor="start" x="243.775" y="-14.1" font-family="sans-serif" font-size="8.00" fill="#1c2021">name = &#39;Robert Zemeckis&#39;</text>
<text text-anchor="start" x="243.775" y="-6.1" font-family="sans-serif" font-size="8.00" fill="#1c2021">born = 1951</text>
</g>
</g>
</svg>
